<svg width="149" height="28" viewBox="0 0 149 28" fill="none" xmlns="http://www.w3.org/2000/svg">
<path fill-rule="evenodd" clip-rule="evenodd" d="M13.0243 0.518775C11.3164 0.685242 9.93645 1.02947 8.59226 1.62437C7.60359 2.06188 6.41875 2.74922 6.13794 3.04812C5.85856 3.34549 6.04213 3.83176 6.45821 3.89671C6.61687 3.92145 6.71406 3.87729 7.22043 3.55032C7.90043 3.11117 8.95527 2.58196 9.70028 2.30607C10.2326 2.10894 11.5449 1.75454 11.7425 1.75454C11.8473 1.75454 11.8475 1.75728 11.7527 1.89963C10.8981 3.18219 10.2979 4.76883 9.80919 7.03694L9.7226 7.43879L9.36956 7.5259C8.59754 7.71637 8.01245 8.26848 7.75539 9.04901C7.727 9.13527 7.55505 9.14134 5.13793 9.14134C3.71507 9.14134 2.55091 9.1262 2.55091 9.10762C2.55091 9.01323 3.16196 7.84068 3.42693 7.42655C3.80519 6.8355 3.83104 6.63035 3.55789 6.38633C3.40657 6.25109 3.34958 6.23157 3.17452 6.25505C2.90321 6.29146 2.86248 6.33082 2.5164 6.89026C-0.268105 11.3917 -0.160943 17.1322 2.78966 21.5305L3.01412 21.8651L2.85894 22.1659C2.64478 22.5811 2.56537 23.0778 2.64177 23.5238C2.89672 25.0121 4.4986 25.8238 5.82791 25.1382L6.12649 24.9842L6.59434 25.2874C8.73915 26.6774 10.9967 27.3912 13.5474 27.4861C18.2553 27.6612 22.6958 25.3487 25.3259 21.3522C26.8189 19.0836 27.5932 16.2903 27.491 13.5425C27.3962 10.9917 26.6823 8.73422 25.2923 6.58941L24.9891 6.12156L25.1431 5.82298C25.3562 5.40984 25.4354 4.91255 25.3591 4.46723C25.104 2.97768 23.5023 2.1673 22.1708 2.85401L21.87 3.00918L21.5354 2.78473C19.8563 1.6583 17.9693 0.933914 15.8999 0.621241C15.3744 0.541833 13.4802 0.474349 13.0243 0.518775ZM14.4623 1.67354C15.62 2.21252 16.7774 4.82956 17.3217 8.13885C17.3813 8.50159 17.4431 8.87578 17.459 8.97034L17.4878 9.14229L14.7627 9.12862L12.0376 9.11496L11.9412 8.86101C11.7617 8.38789 11.4285 8.03137 10.7873 7.62641C10.7562 7.60684 10.9224 6.84046 11.1339 6.02833C11.8295 3.35568 12.9874 1.54454 14.0005 1.54454C14.102 1.54454 14.3099 1.60258 14.4623 1.67354ZM17.0691 1.93261C17.4562 2.03054 18.0104 2.19859 18.3006 2.30607C19.504 2.7517 21.2245 3.71742 21.151 3.90599C21.0231 4.23407 20.9549 4.66219 20.9809 4.97312C21.1094 6.50905 22.6192 7.41837 24.0894 6.84526C24.1602 6.81761 24.2456 6.91095 24.4842 7.27659C24.7724 7.71817 25.45 8.9935 25.45 9.09438C25.45 9.12134 23.9813 9.14134 22.0042 9.14134H18.5583L18.414 8.25756C17.9938 5.68363 17.2967 3.53555 16.4577 2.2294C16.3365 2.04077 16.2194 1.85679 16.1975 1.82049C16.1347 1.71681 16.3003 1.73813 17.0691 1.93261ZM23.7152 3.80142C24.5757 4.25096 24.5255 5.46767 23.6297 5.87685C22.8619 6.22756 21.9504 5.56206 22.0322 4.71052C22.0878 4.1315 22.6071 3.654 23.1812 3.654C23.3543 3.654 23.5212 3.70006 23.7152 3.80142ZM4.36595 4.57207C4.16857 4.76946 4.13923 4.93951 4.26175 5.17647C4.44336 5.52761 4.98502 5.52761 5.16663 5.17647C5.30666 4.90564 5.22135 4.59766 4.97035 4.46787C4.7334 4.34535 4.56334 4.37469 4.36595 4.57207ZM10.3963 8.64183C10.9481 8.91683 11.1942 9.57621 10.947 10.1175C10.5358 11.0176 9.32287 11.0633 8.86695 10.1958C8.73884 9.95199 8.71815 9.85923 8.73578 9.60708C8.79461 8.76546 9.64836 8.26917 10.3963 8.64183ZM7.75539 10.2889C7.94618 10.8683 8.39044 11.3968 8.89275 11.6422L9.19323 11.789L9.16305 13.2484C9.13604 14.5536 9.17366 15.8002 9.28631 17.3328L9.32023 17.7945H5.72861H2.13699L2.08148 17.623C1.96609 17.2665 1.76168 16.3439 1.67188 15.7742C1.60218 15.3317 1.57907 14.877 1.58013 13.9691C1.58187 12.5275 1.68444 11.7756 2.05705 10.4736L2.1363 10.1966H4.93062C7.54518 10.1966 7.72695 10.2026 7.75539 10.2889ZM17.613 10.2626C17.7222 10.5993 17.8322 13.9934 17.7752 15.269L17.7359 16.1467L17.5617 16.175C17.2422 16.2269 16.803 16.4858 16.5053 16.798C16.2423 17.0736 15.9545 17.5587 15.9532 17.7285C15.9524 17.8251 10.4192 17.8251 10.3879 17.7285C10.2788 17.3922 10.1687 13.998 10.2256 12.7247L10.2647 11.8495L10.5223 11.7835C10.8475 11.7002 11.3433 11.3821 11.565 11.1145C11.7184 10.9295 11.9339 10.5335 12.0145 10.2889C12.043 10.2026 12.2237 10.1966 14.8183 10.1966C16.9904 10.1966 17.5963 10.2109 17.613 10.2626ZM25.9194 10.3681C26.0355 10.7267 26.2394 11.6483 26.3283 12.2168C26.4593 13.053 26.4596 14.9022 26.3291 15.7367C26.232 16.3575 26.0881 17.0247 25.945 17.5174L25.8646 17.7945H23.0573H20.25L20.0988 17.4476C19.9073 17.0078 19.53 16.5934 19.1241 16.3771L18.8075 16.2084L18.8378 14.7458C18.8649 13.4373 18.8274 12.1921 18.7146 10.6583L18.6807 10.1966H22.2723H25.8639L25.9194 10.3681ZM18.5942 17.3064C18.7817 17.4014 18.9351 17.5304 19.039 17.6803C19.1823 17.887 19.1976 17.9489 19.1976 18.3221C19.1976 18.6953 19.1823 18.7572 19.039 18.9639C18.8535 19.2314 18.4075 19.483 18.1197 19.4825C17.4527 19.4815 16.9345 18.9742 16.9345 18.3221C16.9345 17.4484 17.8135 16.9105 18.5942 17.3064ZM9.58689 19.7335C10.0154 22.3585 10.7154 24.4896 11.593 25.8408C11.7916 26.1465 11.8173 26.2128 11.7423 26.2253C11.5998 26.2492 10.2827 25.9007 9.70028 25.685C8.49687 25.2394 6.77643 24.2736 6.84993 24.0851C6.97782 23.757 7.04605 23.3289 7.02003 23.0179C6.8915 21.482 5.38169 20.5727 3.91156 21.1458C3.84075 21.1734 3.75533 21.0801 3.51668 20.7145C3.22849 20.2729 2.55091 18.9976 2.55091 18.8967C2.55091 18.8697 4.01957 18.8497 5.99675 18.8497H9.44259L9.58689 19.7335ZM15.9532 18.9157C15.9535 18.952 16.012 19.1068 16.0832 19.2598C16.2432 19.6034 16.6687 20.0614 16.983 20.2281C17.1128 20.2969 17.219 20.3805 17.219 20.4137C17.219 20.5354 16.8984 21.8816 16.7392 22.4285C16.1458 24.4663 15.2874 25.9333 14.4641 26.3167C14.1125 26.4803 13.8888 26.4805 13.5386 26.3175C12.3796 25.7779 11.2659 23.2611 10.6776 19.8522C10.5899 19.3444 10.5182 18.9111 10.5182 18.8893C10.5181 18.8675 11.7409 18.8497 13.2354 18.8497C15.3738 18.8497 15.9528 18.8637 15.9532 18.9157ZM25.45 18.8842C25.45 18.9547 24.8256 20.1578 24.6046 20.5129C23.6224 22.0916 22.0966 23.6175 20.5178 24.5997C19.9646 24.9439 19.0003 25.4155 18.351 25.6596C17.7754 25.8759 16.469 26.2365 16.2609 26.2365C16.1534 26.2365 16.1532 26.2341 16.2483 26.0914C17.0949 24.8207 17.7211 23.1665 18.1924 20.9552L18.2778 20.5544L18.6058 20.4633C19.3119 20.2669 19.8205 19.8354 20.0988 19.1966L20.25 18.8497H22.85C24.28 18.8497 25.45 18.8652 25.45 18.8842ZM5.35368 22.1629C6.23682 22.6243 6.14876 23.9043 5.20921 24.2631C4.45634 24.5506 3.61408 23.9219 3.67054 23.1144C3.71328 22.5032 4.22328 22.0155 4.81972 22.0155C4.99283 22.0155 5.15967 22.0615 5.35368 22.1629Z" fill="#8E2424"/>
<path d="M48.3097 14.4545C48.3097 15.8523 48.054 17.054 47.5426 18.0597C47.0313 19.0611 46.3303 19.8324 45.4396 20.3736C44.5533 20.9105 43.5455 21.179 42.4162 21.179C41.2827 21.179 40.2706 20.9105 39.38 20.3736C38.4936 19.8324 37.7947 19.0589 37.2834 18.0533C36.772 17.0476 36.5163 15.848 36.5163 14.4545C36.5163 13.0568 36.772 11.8572 37.2834 10.8558C37.7947 9.85014 38.4936 9.07883 39.38 8.5419C40.2706 8.00071 41.2827 7.73011 42.4162 7.73011C43.5455 7.73011 44.5533 8.00071 45.4396 8.5419C46.3303 9.07883 47.0313 9.85014 47.5426 10.8558C48.054 11.8572 48.3097 13.0568 48.3097 14.4545ZM46.3537 14.4545C46.3537 13.3892 46.1811 12.4922 45.8359 11.7635C45.495 11.0305 45.0263 10.4766 44.4297 10.1016C43.8374 9.7223 43.1662 9.53267 42.4162 9.53267C41.6619 9.53267 40.9886 9.7223 40.3963 10.1016C39.804 10.4766 39.3352 11.0305 38.9901 11.7635C38.6491 12.4922 38.4787 13.3892 38.4787 14.4545C38.4787 15.5199 38.6491 16.419 38.9901 17.152C39.3352 17.8807 39.804 18.4347 40.3963 18.8139C40.9886 19.1889 41.6619 19.3764 42.4162 19.3764C43.1662 19.3764 43.8374 19.1889 44.4297 18.8139C45.0263 18.4347 45.495 17.8807 45.8359 17.152C46.1811 16.419 46.3537 15.5199 46.3537 14.4545ZM50.6188 24.6818V11.1818H52.4853V12.7734H52.6451C52.7559 12.5689 52.9157 12.3324 53.1245 12.0639C53.3333 11.7955 53.623 11.5611 53.9938 11.3608C54.3645 11.1562 54.8546 11.054 55.464 11.054C56.2566 11.054 56.964 11.2543 57.5861 11.6548C58.2083 12.0554 58.6962 12.6328 59.0499 13.3871C59.4078 14.1413 59.5868 15.049 59.5868 16.1101C59.5868 17.1712 59.41 18.081 59.0563 18.8395C58.7026 19.5937 58.2168 20.1754 57.5989 20.5845C56.981 20.9893 56.2757 21.1918 55.4831 21.1918C54.8865 21.1918 54.3986 21.0916 54.0194 20.8913C53.6444 20.6911 53.3503 20.4567 53.1373 20.1882C52.9242 19.9197 52.7601 19.6811 52.6451 19.4723H52.53V24.6818H50.6188ZM52.4917 16.0909C52.4917 16.7812 52.5918 17.3864 52.7921 17.9062C52.9924 18.4261 53.2821 18.8331 53.6614 19.1271C54.0407 19.4169 54.5051 19.5618 55.0549 19.5618C55.6259 19.5618 56.1032 19.4105 56.4867 19.108C56.8702 18.8011 57.16 18.3857 57.356 17.8615C57.5563 17.3374 57.6564 16.7472 57.6564 16.0909C57.6564 15.4432 57.5584 14.8615 57.3624 14.3459C57.1706 13.8303 56.8809 13.4233 56.4931 13.125C56.1096 12.8267 55.6301 12.6776 55.0549 12.6776C54.5009 12.6776 54.0321 12.8203 53.6486 13.1058C53.2694 13.3913 52.9817 13.7898 52.7857 14.3011C52.5897 14.8125 52.4917 15.4091 52.4917 16.0909ZM66.3113 11.1818V12.7159H60.9483V11.1818H66.3113ZM62.3865 8.82955H64.2978V18.1172C64.2978 18.4879 64.3532 18.767 64.464 18.9545C64.5748 19.1378 64.7175 19.2635 64.8922 19.3317C65.0712 19.3956 65.2651 19.4276 65.4739 19.4276C65.6273 19.4276 65.7615 19.4169 65.8766 19.3956C65.9917 19.3743 66.0811 19.3572 66.1451 19.3445L66.4902 20.9233C66.3794 20.9659 66.2218 21.0085 66.0172 21.0511C65.8127 21.098 65.557 21.1236 65.2502 21.1278C64.7473 21.1364 64.2786 21.0469 63.8439 20.8594C63.4093 20.6719 63.0577 20.3821 62.7892 19.9901C62.5208 19.598 62.3865 19.1058 62.3865 18.5135V8.82955ZM68.4254 21V11.1818H70.3366V21H68.4254ZM69.3906 9.6669C69.0582 9.6669 68.7727 9.55611 68.5341 9.33452C68.2997 9.10866 68.1825 8.8402 68.1825 8.52912C68.1825 8.21378 68.2997 7.94531 68.5341 7.72372C68.7727 7.49787 69.0582 7.38494 69.3906 7.38494C69.723 7.38494 70.0064 7.49787 70.2408 7.72372C70.4794 7.94531 70.5987 8.21378 70.5987 8.52912C70.5987 8.8402 70.4794 9.10866 70.2408 9.33452C70.0064 9.55611 69.723 9.6669 69.3906 9.6669ZM72.9078 21V11.1818H74.7424V12.7798H74.8638C75.0684 12.2386 75.4029 11.8168 75.8674 11.5142C76.3319 11.2074 76.888 11.054 77.5357 11.054C78.1919 11.054 78.7417 11.2074 79.1848 11.5142C79.6323 11.821 79.9625 12.2429 80.1756 12.7798H80.2779C80.5123 12.2557 80.8851 11.8381 81.3965 11.527C81.9078 11.2116 82.5172 11.054 83.2246 11.054C84.1152 11.054 84.8418 11.3331 85.4043 11.8913C85.9711 12.4496 86.2544 13.2912 86.2544 14.4162V21H84.3432V14.5952C84.3432 13.9304 84.1621 13.4489 83.7999 13.1506C83.4377 12.8523 83.0051 12.7031 82.5023 12.7031C81.8801 12.7031 81.3965 12.8949 81.0513 13.2784C80.7061 13.6577 80.5336 14.1456 80.5336 14.7422V21H78.6287V14.4737C78.6287 13.9411 78.4625 13.5128 78.1301 13.1889C77.7978 12.8651 77.3652 12.7031 76.8326 12.7031C76.4703 12.7031 76.1358 12.799 75.829 12.9908C75.5265 13.1783 75.2814 13.4403 75.0939 13.777C74.9107 14.1136 74.8191 14.5036 74.8191 14.9467V21H72.9078ZM95.0355 16.9283V11.1818H96.9531V21H95.0739V19.2997H94.9716C94.7457 19.8239 94.3835 20.2607 93.8849 20.6101C93.3906 20.9553 92.7749 21.1278 92.0376 21.1278C91.407 21.1278 90.8487 20.9893 90.3629 20.7124C89.8814 20.4311 89.5021 20.0156 89.2251 19.4659C88.9524 18.9162 88.8161 18.2365 88.8161 17.4268V11.1818H90.7273V17.1967C90.7273 17.8658 90.9126 18.3984 91.2834 18.7947C91.6541 19.1911 92.1357 19.3892 92.728 19.3892C93.0859 19.3892 93.4418 19.2997 93.7955 19.1207C94.1534 18.9418 94.4496 18.6712 94.6839 18.3089C94.9226 17.9467 95.0398 17.4865 95.0355 16.9283ZM106.878 13.5788L105.146 13.8857C105.074 13.6641 104.959 13.4531 104.801 13.2528C104.648 13.0526 104.439 12.8885 104.175 12.7607C103.91 12.6328 103.58 12.5689 103.184 12.5689C102.643 12.5689 102.191 12.6903 101.829 12.9332C101.466 13.1719 101.285 13.4808 101.285 13.8601C101.285 14.1882 101.407 14.4524 101.65 14.6527C101.893 14.853 102.285 15.017 102.826 15.1449L104.385 15.5028C105.289 15.7116 105.962 16.0334 106.405 16.468C106.849 16.9027 107.07 17.4673 107.07 18.1619C107.07 18.75 106.9 19.2741 106.559 19.7344C106.222 20.1903 105.751 20.5483 105.146 20.8082C104.545 21.0682 103.849 21.1982 103.056 21.1982C101.956 21.1982 101.059 20.9638 100.365 20.495C99.6703 20.022 99.2441 19.3509 99.0865 18.4815L100.934 18.2003C101.049 18.6818 101.285 19.0462 101.643 19.2933C102.001 19.5362 102.468 19.6577 103.043 19.6577C103.67 19.6577 104.17 19.5277 104.545 19.2678C104.92 19.0036 105.108 18.6818 105.108 18.3026C105.108 17.9957 104.993 17.7379 104.763 17.5291C104.537 17.3203 104.189 17.1626 103.721 17.0561L102.059 16.6918C101.143 16.483 100.465 16.1506 100.026 15.6946C99.5914 15.2386 99.3741 14.6612 99.3741 13.9624C99.3741 13.3828 99.536 12.8757 99.8599 12.4411C100.184 12.0064 100.631 11.6676 101.202 11.4247C101.773 11.1776 102.427 11.054 103.165 11.054C104.226 11.054 105.061 11.2841 105.67 11.7443C106.28 12.2003 106.682 12.8118 106.878 13.5788ZM107.343 9.60938V7.90909H117.475V9.60938H113.39V21H111.422V9.60938H107.343ZM122.368 21.1982C121.401 21.1982 120.567 20.9915 119.869 20.5781C119.174 20.1605 118.637 19.5746 118.258 18.8203C117.883 18.0618 117.695 17.1733 117.695 16.1548C117.695 15.1491 117.883 14.2628 118.258 13.4957C118.637 12.7287 119.165 12.13 119.843 11.6996C120.525 11.2692 121.322 11.054 122.234 11.054C122.788 11.054 123.325 11.1456 123.844 11.3288C124.364 11.5121 124.831 11.7997 125.244 12.1918C125.658 12.5838 125.984 13.093 126.222 13.7195C126.461 14.3416 126.58 15.098 126.58 15.9886V16.6662H118.776V15.2344H124.707C124.707 14.7315 124.605 14.2862 124.401 13.8984C124.196 13.5064 123.908 13.1974 123.538 12.9716C123.171 12.7457 122.741 12.6328 122.246 12.6328C121.71 12.6328 121.241 12.7649 120.84 13.0291C120.444 13.2891 120.137 13.63 119.92 14.0518C119.707 14.4695 119.6 14.9233 119.6 15.4134V16.532C119.6 17.1882 119.715 17.7464 119.945 18.2067C120.18 18.6669 120.506 19.0185 120.923 19.2614C121.341 19.5 121.829 19.6193 122.387 19.6193C122.749 19.6193 123.08 19.5682 123.378 19.4659C123.676 19.3594 123.934 19.2017 124.151 18.9929C124.369 18.7841 124.535 18.5263 124.65 18.2195L126.459 18.5455C126.314 19.0781 126.054 19.5447 125.679 19.9453C125.308 20.3416 124.842 20.6506 124.279 20.8722C123.721 21.0895 123.084 21.1982 122.368 21.1982ZM132.836 21.1982C131.886 21.1982 131.068 20.983 130.382 20.5526C129.7 20.1179 129.176 19.5192 128.809 18.7564C128.443 17.9936 128.26 17.12 128.26 16.1357C128.26 15.1385 128.447 14.2585 128.822 13.4957C129.197 12.7287 129.726 12.13 130.407 11.6996C131.089 11.2692 131.893 11.054 132.817 11.054C133.563 11.054 134.228 11.1925 134.812 11.4695C135.395 11.7422 135.866 12.1257 136.224 12.62C136.586 13.1143 136.802 13.6918 136.87 14.3523H135.01C134.907 13.892 134.673 13.4957 134.307 13.1634C133.944 12.831 133.459 12.6648 132.849 12.6648C132.317 12.6648 131.85 12.8054 131.449 13.0866C131.053 13.3636 130.744 13.7599 130.523 14.2756C130.301 14.7869 130.19 15.392 130.19 16.0909C130.19 16.8068 130.299 17.4247 130.516 17.9446C130.733 18.4645 131.04 18.8672 131.437 19.1527C131.837 19.4382 132.308 19.581 132.849 19.581C133.211 19.581 133.54 19.5149 133.834 19.3828C134.132 19.2464 134.381 19.0526 134.581 18.8011C134.786 18.5497 134.929 18.2472 135.01 17.8935H136.87C136.802 18.5284 136.595 19.0952 136.25 19.5938C135.905 20.0923 135.442 20.4844 134.863 20.7699C134.287 21.0554 133.612 21.1982 132.836 21.1982ZM140.825 15.1705V21H138.914V7.90909H140.799V12.7798H140.921C141.151 12.2514 141.502 11.8317 141.975 11.5206C142.449 11.2095 143.066 11.054 143.829 11.054C144.502 11.054 145.091 11.1925 145.593 11.4695C146.1 11.7464 146.493 12.1598 146.77 12.7095C147.051 13.255 147.191 13.9368 147.191 14.755V21H145.28V14.9851C145.28 14.2649 145.095 13.7067 144.724 13.3104C144.353 12.9098 143.838 12.7095 143.177 12.7095C142.725 12.7095 142.321 12.8054 141.963 12.9972C141.609 13.1889 141.33 13.4702 141.125 13.8409C140.925 14.2074 140.825 14.6506 140.825 15.1705Z" fill="#3A404E"/>
</svg>
